<svg width="78" height="78" viewBox="0 0 78 78" fill="none" xmlns="http://www.w3.org/2000/svg">
<g filter="url(#filter0_d_406_62)">
<rect x="4" width="70" height="70" rx="16" fill="#D2F1E1"/>
<path opacity="0.8" d="M52.5 44.0001H49.5V39.5001C49.5 39.1022 49.342 38.7207 49.0607 38.4394C48.7794 38.1581 48.3978 38.0001 48 38.0001H40.5V33.9351L42.195 34.8201C42.4422 34.9494 42.7205 35.0072 42.9988 34.987C43.277 34.9668 43.5441 34.8695 43.7701 34.7059C43.996 34.5422 44.1718 34.3189 44.2778 34.0608C44.3838 33.8027 44.4157 33.5203 44.37 33.2451L43.77 29.6901L46.35 27.1551C46.5454 26.9642 46.685 26.7237 46.7537 26.4593C46.8225 26.195 46.8177 25.9169 46.74 25.6551C46.6531 25.3885 46.4931 25.1516 46.2784 24.9713C46.0636 24.791 45.8026 24.6745 45.525 24.6351L42 24.0801L40.35 20.8401C40.2272 20.5865 40.0354 20.3726 39.7966 20.2229C39.5579 20.0733 39.2818 19.9939 39 19.9939C38.7182 19.9939 38.4421 20.0733 38.2034 20.2229C37.9646 20.3726 37.7728 20.5865 37.65 20.8401L36 24.0801L32.415 24.6051C32.1374 24.6445 31.8764 24.761 31.6616 24.9413C31.4469 25.1216 31.2869 25.3585 31.2 25.6251C31.1223 25.8869 31.1175 26.165 31.1863 26.4293C31.255 26.6937 31.3946 26.9342 31.59 27.1251L34.23 29.6901L33.63 33.2451C33.5843 33.5203 33.6162 33.8027 33.7222 34.0608C33.8282 34.3189 34.004 34.5422 34.2299 34.7059C34.4559 34.8695 34.723 34.9668 35.0012 34.987C35.2795 35.0072 35.5578 34.9494 35.805 34.8201L37.5 33.9351V38.0001H30C29.6022 38.0001 29.2206 38.1581 28.9393 38.4394C28.658 38.7207 28.5 39.1022 28.5 39.5001V44.0001H25.5C25.1022 44.0001 24.7206 44.1581 24.4393 44.4394C24.158 44.7207 24 45.1022 24 45.5001V48.5001C24 48.8979 24.158 49.2794 24.4393 49.5607C24.7206 49.842 25.1022 50.0001 25.5 50.0001C25.8978 50.0001 26.2794 49.842 26.5607 49.5607C26.842 49.2794 27 48.8979 27 48.5001V47.0001H33V48.5001C33 48.8979 33.158 49.2794 33.4393 49.5607C33.7206 49.842 34.1022 50.0001 34.5 50.0001C34.8978 50.0001 35.2794 49.842 35.5607 49.5607C35.842 49.2794 36 48.8979 36 48.5001V45.5001C36 45.1022 35.842 44.7207 35.5607 44.4394C35.2794 44.1581 34.8978 44.0001 34.5 44.0001H31.5V41.0001H46.5V44.0001H43.5C43.1022 44.0001 42.7206 44.1581 42.4393 44.4394C42.158 44.7207 42 45.1022 42 45.5001V48.5001C42 48.8979 42.158 49.2794 42.4393 49.5607C42.7206 49.842 43.1022 50.0001 43.5 50.0001C43.8978 50.0001 44.2794 49.842 44.5607 49.5607C44.842 49.2794 45 48.8979 45 48.5001V47.0001H51V48.5001C51 48.8979 51.158 49.2794 51.4393 49.5607C51.7206 49.842 52.1022 50.0001 52.5 50.0001C52.8978 50.0001 53.2794 49.842 53.5607 49.5607C53.842 49.2794 54 48.8979 54 48.5001V45.5001C54 45.1022 53.842 44.7207 53.5607 44.4394C53.2794 44.1581 52.8978 44.0001 52.5 44.0001ZM39 29.9451C38.7538 29.9463 38.5117 30.0081 38.295 30.1251L37.095 30.7551L37.32 29.4051C37.3594 29.1663 37.3404 28.9215 37.2646 28.6916C37.1889 28.4618 37.0586 28.2537 36.885 28.0851L35.91 27.1251L37.26 26.9301C37.5015 26.8978 37.7315 26.8072 37.9302 26.666C38.1288 26.5249 38.2901 26.3375 38.4 26.1201L39 24.8901L39.6 26.1201C39.7099 26.3375 39.8712 26.5249 40.0698 26.666C40.2685 26.8072 40.4985 26.8978 40.74 26.9301L42.09 27.1251L41.115 28.0851C40.9414 28.2537 40.8111 28.4618 40.7354 28.6916C40.6596 28.9215 40.6406 29.1663 40.68 29.4051L40.905 30.7551L39.705 30.1251C39.4883 30.0081 39.2462 29.9463 39 29.9451Z" fill="#101130"/>
</g>
<defs>
<filter id="filter0_d_406_62" x="0" y="0" width="78" height="78" filterUnits="userSpaceOnUse" color-interpolation-filters="sRGB">
<feFlood flood-opacity="0" result="BackgroundImageFix"/>
<feColorMatrix in="SourceAlpha" type="matrix" values="0 0 0 0 0 0 0 0 0 0 0 0 0 0 0 0 0 0 127 0" result="hardAlpha"/>
<feOffset dy="4"/>
<feGaussianBlur stdDeviation="2"/>
<feComposite in2="hardAlpha" operator="out"/>
<feColorMatrix type="matrix" values="0 0 0 0 0 0 0 0 0 0 0 0 0 0 0 0 0 0 0.25 0"/>
<feBlend mode="normal" in2="BackgroundImageFix" result="effect1_dropShadow_406_62"/>
<feBlend mode="normal" in="SourceGraphic" in2="effect1_dropShadow_406_62" result="shape"/>
</filter>
</defs>
</svg>
