<svg width="70" height="70" viewBox="0 0 70 70" fill="none" xmlns="http://www.w3.org/2000/svg">
<rect width="70" height="70" rx="16" fill="#D2F1E1"/>
<path opacity="0.8" d="M48.7549 20.0901C47.6797 19.9049 46.5909 19.8095 45.4999 19.8051C41.7774 19.802 38.1326 20.8694 34.9999 22.8801C31.8591 20.8958 28.2149 19.8546 24.4999 19.8801C23.4089 19.8845 22.3201 19.9799 21.2449 20.1651C20.8927 20.2258 20.5738 20.4102 20.3455 20.6852C20.1173 20.9603 19.9947 21.3077 19.9999 21.6651V39.6651C19.9967 39.8855 20.0421 40.1039 20.1329 40.3047C20.2236 40.5056 20.3576 40.684 20.5251 40.8272C20.6927 40.9704 20.8898 41.0749 21.1023 41.1333C21.3149 41.1917 21.5377 41.2026 21.7549 41.1651C23.9044 40.7929 26.1067 40.8546 28.232 41.3467C30.3573 41.8387 32.3626 42.7511 34.1299 44.0301L34.3099 44.1351H34.4749C34.6412 44.2044 34.8197 44.2401 34.9999 44.2401C35.1801 44.2401 35.3585 44.2044 35.5249 44.1351H35.6899L35.8699 44.0301C37.6248 42.7225 39.6244 41.7806 41.7501 41.2601C43.8758 40.7396 46.0844 40.6512 48.2449 41.0001C48.4621 41.0376 48.6849 41.0267 48.8974 40.9683C49.11 40.9099 49.3071 40.8054 49.4746 40.6622C49.6422 40.519 49.7761 40.3406 49.8669 40.1397C49.9577 39.9389 50.0031 39.7205 49.9999 39.5001V21.5001C49.9843 21.1583 49.8523 20.8321 49.6259 20.5757C49.3994 20.3192 49.0921 20.1479 48.7549 20.0901ZM33.4999 40.0251C30.7247 38.5651 27.6357 37.8031 24.4999 37.8051C24.0049 37.8051 23.5099 37.8051 22.9999 37.8051V22.8051C23.4995 22.7763 24.0003 22.7763 24.4999 22.8051C27.7 22.8015 30.8302 23.7406 33.4999 25.5051V40.0251ZM46.9999 37.8651C46.4899 37.8651 45.9949 37.8651 45.4999 37.8651C42.3641 37.8631 39.2751 38.6251 36.4999 40.0851V25.5051C39.1696 23.7406 42.2998 22.8015 45.4999 22.8051C45.9995 22.7763 46.5003 22.7763 46.9999 22.8051V37.8651ZM48.7549 44.0901C47.6797 43.9049 46.5909 43.8095 45.4999 43.8051C41.7774 43.802 38.1326 44.8694 34.9999 46.8801C31.8672 44.8694 28.2223 43.802 24.4999 43.8051C23.4089 43.8095 22.3201 43.9049 21.2449 44.0901C21.0496 44.121 20.8624 44.1903 20.694 44.2939C20.5256 44.3975 20.3794 44.5334 20.2637 44.6937C20.148 44.854 20.0651 45.0356 20.0198 45.228C19.9746 45.4205 19.9678 45.62 19.9999 45.8151C20.0761 46.2046 20.3036 46.548 20.6326 46.7701C20.9615 46.9922 21.3651 47.0749 21.7549 47.0001C23.9044 46.6279 26.1067 46.6896 28.232 47.1817C30.3573 47.6737 32.3626 48.5861 34.1299 49.8651C34.3839 50.0459 34.688 50.1431 34.9999 50.1431C35.3117 50.1431 35.6158 50.0459 35.8699 49.8651C37.6371 48.5861 39.6425 47.6737 41.7678 47.1817C43.8931 46.6896 46.0954 46.6279 48.2449 47.0001C48.6347 47.0749 49.0382 46.9922 49.3672 46.7701C49.6961 46.548 49.9237 46.2046 49.9999 45.8151C50.032 45.62 50.0252 45.4205 49.9799 45.228C49.9347 45.0356 49.8518 44.854 49.7361 44.6937C49.6204 44.5334 49.4741 44.3975 49.3057 44.2939C49.1373 44.1903 48.9501 44.121 48.7549 44.0901Z" fill="#101130"/>
</svg>
