<svg width="246" height="270" viewBox="0 0 246 270" fill="none" xmlns="http://www.w3.org/2000/svg">
<g filter="url(#filter0_d_3_55)">
<rect x="45" y="25" width="156" height="180" rx="10" fill="white"/>
</g>
<path d="M62.2756 43.2727H60.9588V52H62.2756V43.2727ZM65.3651 48.1136C65.3651 47.0696 66.0043 46.473 66.8906 46.473C67.7557 46.473 68.2798 47.0398 68.2798 47.9901V52H69.554V47.8366C69.554 46.2173 68.6634 45.3693 67.3253 45.3693C66.3409 45.3693 65.6974 45.8253 65.3949 46.5199H65.3139V45.4545H64.0909V52H65.3651V48.1136ZM74.0199 52.1321C75.5668 52.1321 76.5682 51.2031 76.7088 49.929H75.4688C75.3068 50.6364 74.7571 51.054 74.0284 51.054C72.9503 51.054 72.2557 50.1548 72.2557 48.7273C72.2557 47.3253 72.9631 46.4432 74.0284 46.4432C74.8381 46.4432 75.3324 46.9545 75.4688 47.5682H76.7088C76.5724 46.2472 75.4943 45.3693 74.0071 45.3693C72.1619 45.3693 70.9688 46.7585 70.9688 48.7571C70.9688 50.7301 72.1193 52.1321 74.0199 52.1321ZM78.0714 52H79.3455V48.0028C79.3455 47.1463 80.006 46.5284 80.9094 46.5284C81.1737 46.5284 81.4719 46.5753 81.5742 46.6051V45.3864C81.4464 45.3693 81.195 45.3565 81.033 45.3565C80.266 45.3565 79.6097 45.7912 79.3711 46.4943H79.3029V45.4545H78.0714V52ZM85.2635 52.1321C86.6911 52.1321 87.701 51.429 87.9908 50.3636L86.7848 50.1463C86.5547 50.7642 86.0007 51.0795 85.2763 51.0795C84.1854 51.0795 83.4524 50.3722 83.4183 49.1108H88.0717V48.6591C88.0717 46.294 86.657 45.3693 85.174 45.3693C83.3501 45.3693 82.1484 46.7585 82.1484 48.7699C82.1484 50.8026 83.3331 52.1321 85.2635 52.1321ZM83.4226 48.1562C83.4737 47.2273 84.147 46.4219 85.1825 46.4219C86.1712 46.4219 86.8189 47.1548 86.8232 48.1562H83.4226ZM91.3903 52.1449C92.4727 52.1449 93.082 51.5952 93.3249 51.1051H93.3761V52H94.6204V47.6534C94.6204 45.7486 93.1204 45.3693 92.0806 45.3693C90.896 45.3693 89.805 45.8466 89.3789 47.0398L90.5763 47.3125C90.7638 46.848 91.2411 46.4006 92.0977 46.4006C92.9201 46.4006 93.342 46.831 93.342 47.5724V47.6023C93.342 48.0668 92.8647 48.0582 91.6886 48.1946C90.4485 48.3395 89.1786 48.6634 89.1786 50.1506C89.1786 51.4375 90.146 52.1449 91.3903 52.1449ZM91.6673 51.1222C90.9471 51.1222 90.4272 50.7983 90.4272 50.1676C90.4272 49.4858 91.0323 49.2429 91.7695 49.1449C92.1829 49.0895 93.163 48.9787 93.3462 48.7955V49.6392C93.3462 50.4148 92.7283 51.1222 91.6673 51.1222ZM101.222 47.0526C100.958 46.0341 100.161 45.3693 98.7464 45.3693C97.2678 45.3693 96.2195 46.1491 96.2195 47.3082C96.2195 48.2372 96.782 48.8551 98.0092 49.1278L99.1172 49.3707C99.7479 49.5114 100.042 49.7926 100.042 50.2017C100.042 50.7088 99.5007 51.1051 98.6655 51.1051C97.9027 51.1051 97.4126 50.777 97.2592 50.1335L96.0277 50.321C96.2408 51.4801 97.2038 52.1321 98.674 52.1321C100.255 52.1321 101.35 51.2926 101.35 50.108C101.35 49.1832 100.762 48.6122 99.5604 48.3352L98.5206 48.0966C97.8004 47.9261 97.4893 47.6832 97.4936 47.2401C97.4893 46.7372 98.0348 46.3793 98.7592 46.3793C99.5518 46.3793 99.9183 46.8182 100.067 47.2571L101.222 47.0526ZM105.572 52.1321C107 52.1321 108.01 51.429 108.299 50.3636L107.093 50.1463C106.863 50.7642 106.309 51.0795 105.585 51.0795C104.494 51.0795 103.761 50.3722 103.727 49.1108H108.38V48.6591C108.38 46.294 106.966 45.3693 105.483 45.3693C103.659 45.3693 102.457 46.7585 102.457 48.7699C102.457 50.8026 103.642 52.1321 105.572 52.1321ZM103.731 48.1562C103.782 47.2273 104.456 46.4219 105.491 46.4219C106.48 46.4219 107.127 47.1548 107.132 48.1562H103.731ZM113.809 52L114.61 49.6903H118.02L118.816 52H120.214L117.074 43.2727H115.552L112.412 52H113.809ZM114.994 48.5824L116.281 44.858H116.349L117.636 48.5824H114.994ZM125.518 49.2855C125.523 50.3977 124.696 50.9261 123.98 50.9261C123.192 50.9261 122.646 50.3551 122.646 49.4645V45.4545H121.372V49.6179C121.372 51.2415 122.263 52.0852 123.52 52.0852C124.504 52.0852 125.173 51.5653 125.476 50.8665H125.544V52H126.797V45.4545H125.518V49.2855ZM130.959 52.1278C132.152 52.1278 132.621 51.3991 132.851 50.9815H132.958V52H134.202V43.2727H132.928V46.5156H132.851C132.621 46.1108 132.186 45.3693 130.968 45.3693C129.387 45.3693 128.223 46.6179 128.223 48.7401C128.223 50.858 129.37 52.1278 130.959 52.1278ZM131.24 51.0412C130.103 51.0412 129.51 50.0398 129.51 48.7273C129.51 47.4276 130.09 46.4517 131.24 46.4517C132.353 46.4517 132.949 47.3594 132.949 48.7273C132.949 50.1037 132.34 51.0412 131.24 51.0412ZM136.021 52H137.295V45.4545H136.021V52ZM136.664 44.4446C137.103 44.4446 137.469 44.1037 137.469 43.6861C137.469 43.2685 137.103 42.9233 136.664 42.9233C136.221 42.9233 135.859 43.2685 135.859 43.6861C135.859 44.1037 136.221 44.4446 136.664 44.4446ZM141.83 52.1321C143.257 52.1321 144.267 51.429 144.557 50.3636L143.351 50.1463C143.121 50.7642 142.567 51.0795 141.843 51.0795C140.752 51.0795 140.019 50.3722 139.985 49.1108H144.638V48.6591C144.638 46.294 143.223 45.3693 141.74 45.3693C139.917 45.3693 138.715 46.7585 138.715 48.7699C138.715 50.8026 139.9 52.1321 141.83 52.1321ZM139.989 48.1562C140.04 47.2273 140.713 46.4219 141.749 46.4219C142.738 46.4219 143.385 47.1548 143.39 48.1562H139.989ZM147.326 48.1136C147.326 47.0696 147.965 46.473 148.852 46.473C149.717 46.473 150.241 47.0398 150.241 47.9901V52H151.515V47.8366C151.515 46.2173 150.624 45.3693 149.286 45.3693C148.302 45.3693 147.658 45.8253 147.356 46.5199H147.275V45.4545H146.052V52H147.326V48.1136ZM155.981 52.1321C157.528 52.1321 158.529 51.2031 158.67 49.929H157.43C157.268 50.6364 156.718 51.054 155.989 51.054C154.911 51.054 154.217 50.1548 154.217 48.7273C154.217 47.3253 154.924 46.4432 155.989 46.4432C156.799 46.4432 157.293 46.9545 157.43 47.5682H158.67C158.533 46.2472 157.455 45.3693 155.968 45.3693C154.123 45.3693 152.93 46.7585 152.93 48.7571C152.93 50.7301 154.08 52.1321 155.981 52.1321ZM162.853 52.1321C164.281 52.1321 165.291 51.429 165.581 50.3636L164.375 50.1463C164.145 50.7642 163.591 51.0795 162.866 51.0795C161.775 51.0795 161.042 50.3722 161.008 49.1108H165.662V48.6591C165.662 46.294 164.247 45.3693 162.764 45.3693C160.94 45.3693 159.738 46.7585 159.738 48.7699C159.738 50.8026 160.923 52.1321 162.853 52.1321ZM161.012 48.1562C161.064 47.2273 161.737 46.4219 162.772 46.4219C163.761 46.4219 164.409 47.1548 164.413 48.1562H161.012Z" fill="#111231"/>
<path d="M102.756 186.385H99.3223V190H97.8398V181.469H103.26V182.664H99.3223V185.201H102.756V186.385ZM103.904 186.771C103.904 186.15 104.027 185.592 104.273 185.096C104.52 184.596 104.865 184.213 105.311 183.947C105.756 183.678 106.268 183.543 106.846 183.543C107.701 183.543 108.395 183.818 108.926 184.369C109.461 184.92 109.75 185.65 109.793 186.561L109.799 186.895C109.799 187.52 109.678 188.078 109.436 188.57C109.197 189.062 108.854 189.443 108.404 189.713C107.959 189.982 107.443 190.117 106.857 190.117C105.963 190.117 105.246 189.82 104.707 189.227C104.172 188.629 103.904 187.834 103.904 186.842V186.771ZM105.328 186.895C105.328 187.547 105.463 188.059 105.732 188.43C106.002 188.797 106.377 188.98 106.857 188.98C107.338 188.98 107.711 188.793 107.977 188.418C108.246 188.043 108.381 187.494 108.381 186.771C108.381 186.131 108.242 185.623 107.965 185.248C107.691 184.873 107.318 184.686 106.846 184.686C106.381 184.686 106.012 184.871 105.738 185.242C105.465 185.609 105.328 186.16 105.328 186.895ZM112.518 190H111.094V181H112.518V190ZM115.588 190H114.164V181H115.588V190ZM116.877 186.771C116.877 186.15 117 185.592 117.246 185.096C117.492 184.596 117.838 184.213 118.283 183.947C118.729 183.678 119.24 183.543 119.818 183.543C120.674 183.543 121.367 183.818 121.898 184.369C122.434 184.92 122.723 185.65 122.766 186.561L122.771 186.895C122.771 187.52 122.65 188.078 122.408 188.57C122.17 189.062 121.826 189.443 121.377 189.713C120.932 189.982 120.416 190.117 119.83 190.117C118.936 190.117 118.219 189.82 117.68 189.227C117.145 188.629 116.877 187.834 116.877 186.842V186.771ZM118.301 186.895C118.301 187.547 118.436 188.059 118.705 188.43C118.975 188.797 119.35 188.98 119.83 188.98C120.311 188.98 120.684 188.793 120.949 188.418C121.219 188.043 121.354 187.494 121.354 186.771C121.354 186.131 121.215 185.623 120.938 185.248C120.664 184.873 120.291 184.686 119.818 184.686C119.354 184.686 118.984 184.871 118.711 185.242C118.438 185.609 118.301 186.16 118.301 186.895ZM129.545 188.037L130.553 183.66H131.941L130.213 190H129.041L127.682 185.646L126.346 190H125.174L123.439 183.66H124.828L125.854 187.99L127.154 183.66H128.227L129.545 188.037ZM135.686 190.117C134.783 190.117 134.051 189.834 133.488 189.268C132.93 188.697 132.65 187.939 132.65 186.994V186.818C132.65 186.186 132.771 185.621 133.014 185.125C133.26 184.625 133.604 184.236 134.045 183.959C134.486 183.682 134.979 183.543 135.521 183.543C136.385 183.543 137.051 183.818 137.52 184.369C137.992 184.92 138.229 185.699 138.229 186.707V187.281H134.086C134.129 187.805 134.303 188.219 134.607 188.523C134.916 188.828 135.303 188.98 135.768 188.98C136.42 188.98 136.951 188.717 137.361 188.189L138.129 188.922C137.875 189.301 137.535 189.596 137.109 189.807C136.688 190.014 136.213 190.117 135.686 190.117ZM135.516 184.686C135.125 184.686 134.809 184.822 134.566 185.096C134.328 185.369 134.176 185.75 134.109 186.238H136.822V186.133C136.791 185.656 136.664 185.297 136.441 185.055C136.219 184.809 135.91 184.686 135.516 184.686ZM142.658 184.961C142.471 184.93 142.277 184.914 142.078 184.914C141.426 184.914 140.986 185.164 140.76 185.664V190H139.336V183.66H140.695L140.73 184.369C141.074 183.818 141.551 183.543 142.16 183.543C142.363 183.543 142.531 183.57 142.664 183.625L142.658 184.961ZM147.111 188.277C147.111 188.023 147.006 187.83 146.795 187.697C146.588 187.564 146.242 187.447 145.758 187.346C145.273 187.244 144.869 187.115 144.545 186.959C143.834 186.615 143.479 186.117 143.479 185.465C143.479 184.918 143.709 184.461 144.17 184.094C144.631 183.727 145.217 183.543 145.928 183.543C146.686 183.543 147.297 183.73 147.762 184.105C148.23 184.48 148.465 184.967 148.465 185.564H147.041C147.041 185.291 146.939 185.064 146.736 184.885C146.533 184.701 146.264 184.609 145.928 184.609C145.615 184.609 145.359 184.682 145.16 184.826C144.965 184.971 144.867 185.164 144.867 185.406C144.867 185.625 144.959 185.795 145.143 185.916C145.326 186.037 145.697 186.16 146.256 186.285C146.814 186.406 147.252 186.553 147.568 186.725C147.889 186.893 148.125 187.096 148.277 187.334C148.434 187.572 148.512 187.861 148.512 188.201C148.512 188.771 148.275 189.234 147.803 189.59C147.33 189.941 146.711 190.117 145.945 190.117C145.426 190.117 144.963 190.023 144.557 189.836C144.15 189.648 143.834 189.391 143.607 189.062C143.381 188.734 143.268 188.381 143.268 188.002H144.65C144.67 188.338 144.797 188.598 145.031 188.781C145.266 188.961 145.576 189.051 145.963 189.051C146.338 189.051 146.623 188.98 146.818 188.84C147.014 188.695 147.111 188.508 147.111 188.277Z" fill="#111231"/>
<path d="M99.3365 125.636H95.8265L90.7654 128.888V132.268L95.5282 129.226H95.6475V146H99.3365V125.636ZM104.507 146H118.467V142.918H109.598V142.778L113.108 139.209C117.065 135.411 118.159 133.561 118.159 131.264C118.159 127.854 115.385 125.358 111.288 125.358C107.251 125.358 104.388 127.864 104.388 131.732H107.898C107.898 129.653 109.21 128.351 111.238 128.351C113.177 128.351 114.619 129.534 114.619 131.453C114.619 133.153 113.585 134.366 111.577 136.405L104.507 143.335V146ZM128.977 146.278C133.282 146.278 136.285 143.355 136.285 139.308C136.285 135.391 133.561 132.567 129.862 132.567C128.211 132.567 126.75 133.223 125.994 134.118H125.875L126.461 128.719H135.221V125.636H123.409L122.345 136.136L125.676 136.683C126.362 135.928 127.655 135.42 128.878 135.43C131.115 135.44 132.726 137.091 132.716 139.398C132.726 141.675 131.155 143.295 128.977 143.295C127.138 143.295 125.656 142.132 125.527 140.462H121.947C122.047 143.842 125 146.278 128.977 146.278ZM139.815 146H143.504V139.935L145.761 137.27L151.836 146H156.271L148.327 134.774L156.202 125.636H151.697L143.753 134.993H143.504V125.636H139.815V146Z" fill="#111231"/>
<path d="M68.75 162.08C68.322 162.08 67.9574 161.963 67.6562 161.73C67.3551 161.495 67.125 161.155 66.9659 160.71C66.8068 160.263 66.7273 159.723 66.7273 159.091C66.7273 158.462 66.8068 157.925 66.9659 157.48C67.1269 157.033 67.358 156.692 67.6591 156.457C67.9621 156.221 68.3258 156.102 68.75 156.102C69.1742 156.102 69.5369 156.221 69.8381 156.457C70.1411 156.692 70.3722 157.033 70.5312 157.48C70.6922 157.925 70.7727 158.462 70.7727 159.091C70.7727 159.723 70.6932 160.263 70.5341 160.71C70.375 161.155 70.1449 161.495 69.8438 161.73C69.5426 161.963 69.178 162.08 68.75 162.08ZM68.75 161.455C69.1742 161.455 69.5038 161.25 69.7386 160.841C69.9735 160.432 70.0909 159.848 70.0909 159.091C70.0909 158.587 70.0369 158.158 69.929 157.804C69.8229 157.45 69.6695 157.18 69.4688 156.994C69.2699 156.809 69.0303 156.716 68.75 156.716C68.3295 156.716 68.0009 156.923 67.7642 157.338C67.5275 157.751 67.4091 158.335 67.4091 159.091C67.4091 159.595 67.4621 160.023 67.5682 160.375C67.6742 160.727 67.8267 160.995 68.0256 161.179C68.2263 161.363 68.4678 161.455 68.75 161.455ZM74.8182 160.909V160.602C74.8182 160.39 74.8617 160.196 74.9489 160.02C75.0379 159.842 75.1667 159.7 75.3352 159.594C75.5057 159.486 75.7121 159.432 75.9545 159.432C76.2008 159.432 76.4072 159.486 76.5739 159.594C76.7405 159.7 76.8665 159.842 76.9517 160.02C77.0369 160.196 77.0795 160.39 77.0795 160.602V160.909C77.0795 161.121 77.036 161.316 76.9489 161.494C76.8636 161.67 76.7367 161.812 76.5682 161.92C76.4015 162.027 76.197 162.08 75.9545 162.08C75.7083 162.08 75.5009 162.027 75.3324 161.92C75.1638 161.812 75.036 161.67 74.9489 161.494C74.8617 161.316 74.8182 161.121 74.8182 160.909ZM75.3977 160.602V160.909C75.3977 161.085 75.4394 161.243 75.5227 161.384C75.6061 161.522 75.75 161.591 75.9545 161.591C76.1534 161.591 76.2936 161.522 76.375 161.384C76.4583 161.243 76.5 161.085 76.5 160.909V160.602C76.5 160.426 76.4602 160.269 76.3807 160.131C76.3011 159.991 76.1591 159.92 75.9545 159.92C75.7557 159.92 75.6127 159.991 75.5256 160.131C75.4403 160.269 75.3977 160.426 75.3977 160.602ZM71.9205 157.58V157.273C71.9205 157.061 71.964 156.866 72.0511 156.69C72.1402 156.512 72.2689 156.37 72.4375 156.264C72.608 156.156 72.8144 156.102 73.0568 156.102C73.303 156.102 73.5095 156.156 73.6761 156.264C73.8428 156.37 73.9688 156.512 74.054 156.69C74.1392 156.866 74.1818 157.061 74.1818 157.273V157.58C74.1818 157.792 74.1383 157.987 74.0511 158.165C73.9659 158.341 73.839 158.483 73.6705 158.591C73.5038 158.697 73.2992 158.75 73.0568 158.75C72.8106 158.75 72.6032 158.697 72.4347 158.591C72.2661 158.483 72.1383 158.341 72.0511 158.165C71.964 157.987 71.9205 157.792 71.9205 157.58ZM72.5 157.273V157.58C72.5 157.756 72.5417 157.914 72.625 158.054C72.7083 158.192 72.8523 158.261 73.0568 158.261C73.2557 158.261 73.3958 158.192 73.4773 158.054C73.5606 157.914 73.6023 157.756 73.6023 157.58V157.273C73.6023 157.097 73.5625 156.939 73.483 156.801C73.4034 156.661 73.2614 156.591 73.0568 156.591C72.858 156.591 72.715 156.661 72.6278 156.801C72.5426 156.939 72.5 157.097 72.5 157.273ZM72.1364 162L76.1364 156.182H76.7841L72.7841 162H72.1364Z" fill="#606176"/>
<path d="M171.737 162.08C172.845 162.08 173.657 161.261 173.657 160.148C173.657 159.02 172.873 158.193 171.805 158.193C171.413 158.193 171.032 158.332 170.794 158.523H170.76L170.964 156.807H173.396V156.182H170.373L170.021 159.045L170.68 159.125C170.922 158.952 171.333 158.827 171.691 158.83C172.433 158.835 172.975 159.398 172.975 160.159C172.975 160.906 172.453 161.455 171.737 161.455C171.14 161.455 170.666 161.071 170.612 160.545H169.93C169.973 161.432 170.737 162.08 171.737 162.08ZM176.684 162.08C177.968 162.08 178.706 160.991 178.706 159.091C178.706 157.205 177.956 156.102 176.684 156.102C175.411 156.102 174.661 157.205 174.661 159.091C174.661 160.991 175.4 162.08 176.684 162.08ZM176.684 161.455C175.837 161.455 175.343 160.605 175.343 159.091C175.343 157.58 175.843 156.716 176.684 156.716C177.525 156.716 178.025 157.58 178.025 159.091C178.025 160.605 177.53 161.455 176.684 161.455ZM182.752 160.909C182.752 161.545 183.15 162.08 183.888 162.08C184.615 162.08 185.013 161.545 185.013 160.909V160.602C185.013 159.966 184.627 159.432 183.888 159.432C183.161 159.432 182.752 159.966 182.752 160.602V160.909ZM179.854 157.58C179.854 158.216 180.252 158.75 180.99 158.75C181.718 158.75 182.115 158.216 182.115 157.58V157.273C182.115 156.636 181.729 156.102 180.99 156.102C180.263 156.102 179.854 156.636 179.854 157.273V157.58ZM180.07 162H180.718L184.718 156.182H184.07L180.07 162ZM183.331 160.602C183.331 160.25 183.49 159.92 183.888 159.92C184.297 159.92 184.434 160.25 184.434 160.602V160.909C184.434 161.261 184.286 161.591 183.888 161.591C183.479 161.591 183.331 161.261 183.331 160.909V160.602ZM180.434 157.273C180.434 156.92 180.593 156.591 180.99 156.591C181.4 156.591 181.536 156.92 181.536 157.273V157.58C181.536 157.932 181.388 158.261 180.99 158.261C180.581 158.261 180.434 157.932 180.434 157.58V157.273Z" fill="#606176"/>
<circle cx="122.5" cy="105.5" r="8.5" fill="#F77E53"/>
<path d="M174.25 144.534C176.422 136.677 176.766 128.422 175.252 120.405C173.693 112.15 170.207 104.382 165.08 97.7357C159.953 91.0898 153.331 85.755 145.754 82.1675C138.177 78.58 129.861 76.8416 121.485 77.0944C113.11 77.3473 104.913 79.5842 97.565 83.6222C90.217 87.6603 83.9263 93.3849 79.2074 100.328C74.4885 107.271 71.4752 115.235 70.4141 123.57C69.5188 130.602 70.0344 137.728 71.9156 144.534" stroke="#297CFD" stroke-width="9.92569" stroke-linecap="round"/>
<path d="M165.08 97.7357C159.953 91.0898 153.331 85.755 145.754 82.1675C138.177 78.58 129.861 76.8416 121.485 77.0944C113.11 77.3473 104.913 79.5842 97.565 83.6222C90.217 87.6603 83.9263 93.3849 79.2074 100.328C74.4885 107.271 71.4752 115.235 70.4141 123.57C69.5188 130.602 70.0344 137.728 71.9156 144.534" stroke="#F77E53" stroke-width="9.92569" stroke-linecap="round"/>
<circle cx="191" cy="35" r="14" fill="#2076FF"/>
<path d="M185 33.8184L190.091 38.9093L197.727 30.0002" stroke="#FEFEFE" stroke-width="2.5" stroke-linecap="round" stroke-linejoin="round"/>
<defs>
<filter id="filter0_d_3_55" x="0" y="0" width="246" height="270" filterUnits="userSpaceOnUse" color-interpolation-filters="sRGB">
<feFlood flood-opacity="0" result="BackgroundImageFix"/>
<feColorMatrix in="SourceAlpha" type="matrix" values="0 0 0 0 0 0 0 0 0 0 0 0 0 0 0 0 0 0 127 0" result="hardAlpha"/>
<feOffset dy="20"/>
<feGaussianBlur stdDeviation="22.5"/>
<feColorMatrix type="matrix" values="0 0 0 0 0 0 0 0 0 0 0 0 0 0 0 0 0 0 0.05 0"/>
<feBlend mode="normal" in2="BackgroundImageFix" result="effect1_dropShadow_3_55"/>
<feBlend mode="normal" in="SourceGraphic" in2="effect1_dropShadow_3_55" result="shape"/>
</filter>
</defs>
</svg>
