<svg width="20" height="20" viewBox="0 0 20 20" fill="none" xmlns="http://www.w3.org/2000/svg">
<path fill-rule="evenodd" clip-rule="evenodd" d="M13.4654 6.86063C13.4654 8.8187 11.9044 10.3888 9.95769 10.3888C8.01093 10.3888 6.44995 8.8187 6.44995 6.86063C6.44995 4.90181 8.01093 3.33325 9.95769 3.33325C11.9044 3.33325 13.4654 4.90181 13.4654 6.86063ZM9.95769 16.6666C7.09837 16.6666 4.65691 16.2133 4.65691 14.4001C4.65691 12.5861 7.0827 12.1163 9.95769 12.1163C12.817 12.1163 15.2585 12.5696 15.2585 14.3836C15.2585 16.1968 12.8327 16.6666 9.95769 16.6666ZM14.9644 6.92424C14.9644 7.92242 14.6667 8.85229 14.1444 9.62531C14.0906 9.70487 14.1384 9.81219 14.2332 9.8287C14.3637 9.85122 14.4988 9.86398 14.6361 9.86773C16.0053 9.90375 17.2343 9.0174 17.5738 7.68301C18.0767 5.70092 16.6 3.92147 14.7197 3.92147C14.5152 3.92147 14.3197 3.94324 14.1294 3.98226C14.1033 3.98827 14.0757 4.00027 14.0608 4.02354C14.0429 4.05206 14.0563 4.09034 14.0742 4.1151C14.6391 4.91139 14.9644 5.88254 14.9644 6.92424ZM17.232 11.2604C18.152 11.4413 18.7572 11.8105 19.0079 12.3471C19.2198 12.7877 19.2198 13.2988 19.0079 13.7386C18.6244 14.5709 17.388 14.8381 16.9074 14.9071C16.8082 14.9221 16.7283 14.8358 16.7388 14.736C16.9843 12.4297 15.0316 11.3362 14.5264 11.0848C14.5048 11.0735 14.5003 11.0563 14.5025 11.0458C14.504 11.0383 14.513 11.0262 14.5294 11.024C15.6225 11.0037 16.7977 11.1538 17.232 11.2604ZM5.36442 9.86772C5.50171 9.86397 5.63602 9.85196 5.76735 9.82869C5.86211 9.81218 5.90987 9.70486 5.85614 9.62531C5.33382 8.85229 5.0361 7.92241 5.0361 6.92424C5.0361 5.88253 5.36143 4.91138 5.92628 4.11509C5.94419 4.09033 5.95687 4.05205 5.93971 4.02353C5.92479 4.00102 5.89644 3.98826 5.87107 3.98225C5.68005 3.94323 5.48455 3.92146 5.2801 3.92146C3.39975 3.92146 1.92309 5.70091 2.42675 7.683C2.76626 9.0174 3.9952 9.90374 5.36442 9.86772ZM5.49761 11.0453C5.49985 11.0565 5.49537 11.0731 5.47448 11.0851C4.96858 11.3365 3.01585 12.43 3.26134 14.7355C3.27179 14.8361 3.1927 14.9217 3.09346 14.9074C2.61292 14.8383 1.37652 14.5712 0.99299 13.7389C0.780332 13.2983 0.780332 12.788 0.99299 12.3474C1.2437 11.8108 1.8481 11.4416 2.76813 11.2599C3.20314 11.1541 4.37761 11.004 5.4715 11.0243C5.48791 11.0265 5.49612 11.0385 5.49761 11.0453Z" fill="#F77E53"/>
</svg>
