<svg width="20" height="20" viewBox="0 0 20 20" fill="none" xmlns="http://www.w3.org/2000/svg">
<path fill-rule="evenodd" clip-rule="evenodd" d="M9.99984 18.3334C5.39984 18.3334 1.6665 14.6084 1.6665 10.0001C1.6665 5.40008 5.39984 1.66675 9.99984 1.66675C14.6082 1.66675 18.3332 5.40008 18.3332 10.0001C18.3332 14.6084 14.6082 18.3334 9.99984 18.3334ZM12.6582 13.0917C12.7582 13.1501 12.8665 13.1834 12.9832 13.1834C13.1915 13.1834 13.3998 13.0751 13.5165 12.8751C13.6915 12.5834 13.5998 12.2001 13.2998 12.0167L10.3332 10.2501V6.40005C10.3332 6.05005 10.0498 5.77505 9.70817 5.77505C9.3665 5.77505 9.08317 6.05005 9.08317 6.40005V10.6084C9.08317 10.8251 9.19984 11.0251 9.3915 11.1417L12.6582 13.0917Z" fill="#F77E53"/>
</svg>
